<svg xmlns="http://www.w3.org/2000/svg" viewBox="0 0 260.64 301.83"><defs><style>.cls-1{fill:#231f20;}</style></defs><title>Ресурс 15</title><g id="Слой_2" data-name="Слой 2"><g id="Layer_1" data-name="Layer 1"><path class="cls-1" d="M256.32,138.18a129.82,129.82,0,0,0-24.73-48.71L239.08,82a13.61,13.61,0,0,0,0-19.24,14,14,0,0,0-19.24,0l-7.49,7.49a130.21,130.21,0,0,0-26-16.29,132.34,132.34,0,0,0-26.54-9.33l-.27,0c-4-.93-8.05-1.74-12.21-2.29V34h6a17,17,0,0,0,0-34H106.26a17.54,17.54,0,0,0-4.34.61s0,0,0,0A17,17,0,0,0,106.26,34h7.05v8.26a130.29,130.29,0,0,0-99.58,71.24,128.16,128.16,0,0,0-9.14,23.82A130.6,130.6,0,0,0,130.32,301.83a128,128,0,0,0,19.11-1.43c.67-.08,1.3-.28,2-.39A130.25,130.25,0,0,0,256.32,138.18ZM198.41,239.6a95.86,95.86,0,0,1-44.2,25.13,100,100,0,0,1-17.55,2.59c-.85.05-1.64.2-2.49.21-1.29.06-2.55.26-3.84.26a98.07,98.07,0,0,1-10.53-.6A96.25,96.25,0,0,1,34,171.51c0-2,.17-4,.29-6A95.55,95.55,0,0,1,62.22,103.4c2.08-2.08,4.26-4,6.49-5.89h0A96.12,96.12,0,0,1,178.25,88l.36.24a96.91,96.91,0,0,1,19.81,15.12c1.41,1.42,2.68,2.92,4,4.4l.15.16a99.51,99.51,0,0,1,7.25,9.52c1.43,2.14,2.86,4.28,4.11,6.5a95.23,95.23,0,0,1,12.58,44.67c0,1,.13,1.88.13,2.85A95.67,95.67,0,0,1,198.41,239.6Z"/></g></g></svg>