<svg xmlns="http://www.w3.org/2000/svg" viewBox="0 0 77.08 77.08"><defs><style>.cls-1{fill-rule:evenodd;}</style></defs><title>Ресурс 4</title><g id="Слой_2" data-name="Слой 2"><g id="Layer_1" data-name="Layer 1"><g id="xB8dQg"><path class="cls-1" d="M36.28,0H40.8A38.82,38.82,0,0,1,77.08,36.28V40.8A38.82,38.82,0,0,1,40.8,77.08H36.28A38.82,38.82,0,0,1,0,40.8V36.28C.92,25.06,5.46,17.45,11.29,11.14,17.58,5.39,25.15.91,36.28,0ZM24.39,10.84a30.41,30.41,0,0,0-8.73,6.77A29.55,29.55,0,0,0,7.53,40.35c.7,9.45,4.36,15.93,9.94,21.08A30.24,30.24,0,0,0,40.2,69.55c9.09-.67,15.88-4.21,21.08-9.93a31.13,31.13,0,0,0,6.17-9.33,31.05,31.05,0,0,0,2.26-13.4,31.37,31.37,0,0,0-9.94-21.08A31,31,0,0,0,36.88,7.53,32.33,32.33,0,0,0,24.39,10.84Z"/><path class="cls-1" d="M29.51,25.29a4.78,4.78,0,0,1,4.22,2.41,4.58,4.58,0,0,1-6,6A4.43,4.43,0,0,1,25.44,28,4.25,4.25,0,0,1,29.51,25.29Z"/><path class="cls-1" d="M47.27,25.29a4.5,4.5,0,0,1,4.37,6,5,5,0,0,1-2.26,2.41c-2.64,1.13-5.82-.42-6.32-3A4.41,4.41,0,0,1,47.27,25.29Z"/><path class="cls-1" d="M17.46,38.69c3.19-.57,3.26,2.16,3.91,4.52A17.94,17.94,0,0,0,33.12,55.55c11,3.51,20.34-4.22,22.58-12.19.62-2.21.54-4.69,3.16-4.82a3.27,3.27,0,0,1,3,1.81c.75,2.13-1.26,6.67-2.11,8.43a21.29,21.29,0,0,1-4.37,6.47,23.2,23.2,0,0,1-19,6.93,23.55,23.55,0,0,1-14.6-6.78A24.8,24.8,0,0,1,16,45.31C15.14,42.66,14.1,39.3,17.46,38.69Z"/></g></g></g></svg>