<svg xmlns="http://www.w3.org/2000/svg" viewBox="0 0 74.32 23.04"><defs><style>.cls-1{fill:#fff;}</style></defs><title>Ресурс 2</title><g id="Слой_2" data-name="Слой 2"><g id="Layer_1" data-name="Layer 1"><path class="cls-1" d="M0,1.46A1.3,1.3,0,0,1,1.27.16H8.51C13.64.16,17,2.89,17,7.37v.06c0,4.9-4.09,7.43-8.93,7.43H2.56v6.88A1.3,1.3,0,0,1,1.27,23,1.3,1.3,0,0,1,0,21.74ZM8.18,12.53c3.77,0,6.23-2,6.23-5V7.46c0-3.24-2.43-4.93-6.1-4.93H2.56v10Z"/><path class="cls-1" d="M22.45,1.3A1.28,1.28,0,1,1,25,1.3V21.74a1.28,1.28,0,1,1-2.57,0Z"/><path class="cls-1" d="M31.14,1.33A1.29,1.29,0,0,1,32.4.07h.36a1.57,1.57,0,0,1,1.3.75L47.86,18.4V1.27a1.25,1.25,0,1,1,2.5,0V21.78A1.15,1.15,0,0,1,49.19,23h-.13a1.76,1.76,0,0,1-1.33-.78l-14.09-18V21.78a1.25,1.25,0,1,1-2.5,0Z"/><path class="cls-1" d="M56,1.3a1.28,1.28,0,1,1,2.57,0V13.73L71.56.45a1.46,1.46,0,0,1,1-.45A1.28,1.28,0,0,1,73.8,1.27a1.26,1.26,0,0,1-.42.91l-8.05,8L74,20.8a1.42,1.42,0,0,1,.36.94A1.32,1.32,0,0,1,73,23a1.23,1.23,0,0,1-1-.58L63.51,11.91l-4.9,4.9v4.93a1.28,1.28,0,1,1-2.57,0Z"/></g></g></svg>